<svg width="92" height="64" viewBox="0 0 92 64" fill="none" xmlns="http://www.w3.org/2000/svg">
<path fill-rule="evenodd" clip-rule="evenodd" d="M92 14.5777C92 14.5777 87.2038 14.5611 82.1349 14.5777C77.0661 14.5944 75.7825 18.4724 75.7825 18.4724L63.1064 51.2385L68.0412 63.9887C73.1045 63.9688 74.3881 60.0941 74.3881 60.0941L92 14.5777Z" fill="#31C7ED"/>
<path fill-rule="evenodd" clip-rule="evenodd" d="M54.628 29.3275L54.6158 29.2964C54.6154 29.2927 54.6154 29.289 54.6158 29.2853L54.607 29.2643C53.4985 26.477 51.1963 24.179 48.5438 22.397C51.2041 20.0669 52.8579 16.5939 52.8579 12.717C52.8579 7.12244 48.0484 0 34.2362 0H10.0036V18.6832H0V29.4274H10.0014V48.7342H35.4699C37.6647 48.7487 39.8534 48.4987 41.9886 47.9896L42.0163 47.983C43.5689 47.6085 45.0698 47.0451 46.4855 46.3053L51.8226 60.0975C51.8226 60.0975 53.1073 63.9744 58.1739 63.9921C63.2406 64.0099 68.039 63.9921 68.039 63.9921L54.628 29.3275ZM24.3789 10.7452H33.3328C37.2766 10.7452 38.5092 12.7991 38.5092 14.7153C38.5092 16.6316 37.2822 18.6721 33.3639 18.6832H24.3789V10.7452ZM24.3789 29.4263H33.8726C38.0525 29.4263 39.3594 31.6033 39.3594 33.6349C39.3594 35.6666 38.0592 37.8303 33.9059 37.8425H24.3789V29.4263Z" fill="#223AD2"/>
<path opacity="0.8" d="M41.3127 32.9264C41.3127 32.9264 40.2442 29.4102 34.4404 29.4102H34.0292V29.4268C38.085 29.4812 39.3586 31.6293 39.3586 33.6344C39.3586 35.6616 38.0584 37.8297 33.9051 37.8419H24.3792V29.4157L10.0039 29.4268V48.7336H35.4702C37.665 48.7481 39.8537 48.4982 41.9889 47.9891L42.0166 47.9824C43.5692 47.608 45.0701 47.0445 46.4858 46.3047L41.3127 32.9264Z" fill="url(#paint0_linear_28624_60019)"/>
<path d="M10.0014 29.4277H0L10.0014 34.037V29.4277Z" fill="#31C7ED"/>
<defs>
<linearGradient id="paint0_linear_28624_60019" x1="21.2955" y1="42.1078" x2="27.545" y2="31.2946" gradientUnits="userSpaceOnUse">
<stop stop-color="#223AD2"/>
<stop offset="1" stop-color="#17278C"/>
</linearGradient>
</defs>
</svg>
