<svg preserveAspectRatio="xMidYMid meet" overflow="visible" style="display: block;" viewBox="0 0 475 396.054" fill="none" xmlns="http://www.w3.org/2000/svg">
<g id="svg_1">
<path id="svg_2" d="M136.423 328.808C129.533 328.67 123.47 329.497 117.406 330.875C116.304 334.871 116.442 340.658 117.406 344.792C124.71 343.139 128.844 343.001 133.529 343.001C142.624 343.001 147.034 346.722 147.034 354.163V354.852C144.278 354.576 141.108 354.301 138.766 354.301C123.745 354.301 110.93 359.675 110.93 374.144C110.93 390.405 122.505 395.917 139.317 395.917C147.309 395.917 155.853 394.539 163.845 392.058V355.403C163.845 337.902 154.475 329.221 136.423 328.808ZM147.034 381.447C146.069 381.723 141.659 382.136 139.592 382.136C131.462 382.136 127.19 379.794 127.19 374.006C127.19 368.356 131.6 366.014 139.592 366.014C142.348 366.014 145.38 366.289 147.034 366.427V381.447Z" fill="var(--fill-0, #CC092F)"/>
<path id="svg_3" d="M104.04 329.634C95.6339 329.634 90.9486 332.942 86.4012 338.729C85.9878 335.698 85.4366 333.355 84.472 330.323C82.8184 329.772 79.7868 329.634 77.3063 329.634C74.9637 329.634 71.7943 329.91 70.2785 330.323V394.401C72.3455 394.952 75.9283 395.09 79.0978 395.09C82.1294 395.09 85.9878 394.814 87.917 394.401V363.12C87.917 350.718 94.3937 343.966 103.213 343.966C104.729 343.966 107.485 343.966 109.001 344.241C109.965 340.107 110.103 334.182 109.276 330.048C108.036 330.048 105.418 329.634 104.04 329.634Z" fill="var(--fill-0, #CC092F)"/>
<path id="svg_4" d="M30.7296 329.083C25.631 329.083 20.6701 330.185 17.6385 331.839V300.42C12.6777 302.212 7.44125 304.83 3.03162 308.413C0.826802 310.204 0 312.133 0 314.752V392.334C4.68523 394.263 14.1935 396.054 23.1506 396.054C46.0255 396.054 59.2544 381.998 59.2544 361.742C59.3922 341.623 50.0217 329.083 30.7296 329.083ZM24.253 381.585C22.4616 381.585 19.5677 381.585 17.6385 380.896V345.619C19.9811 344.379 23.4262 343.69 27.8358 343.69C36.6551 343.69 41.3403 349.753 41.3403 361.19C41.2025 373.317 35.6905 381.585 24.253 381.585Z" fill="var(--fill-0, #CC092F)"/>
<path id="svg_5" d="M214.97 314.752V330.185C211.8 329.358 208.631 329.221 205.737 329.221C186.307 329.221 173.216 342.174 173.216 362.982C173.216 384.203 186.032 395.916 206.151 395.916C215.383 395.916 224.34 394.676 232.471 391.92V300.42C227.51 302.212 222.273 304.83 217.864 308.413C215.659 310.204 214.97 311.996 214.97 314.752ZM214.97 380.62C211.938 381.447 209.871 381.585 207.529 381.585C195.953 381.585 191.406 374.006 191.406 362.844C191.406 350.58 195.953 343.001 207.391 343.001C210.836 343.001 212.903 343.414 214.97 343.965V380.62Z" fill="var(--fill-0, #CC092F)"/>
<path id="svg_6" d="M340.506 356.506L333.478 353.474C329.344 351.82 327.002 350.304 327.002 347.686C327.002 343.552 330.722 342.725 335.545 342.725C340.368 342.725 345.329 343.277 352.081 345.481C352.908 340.796 352.908 336.387 352.081 332.39C347.81 330.186 339.955 328.945 332.927 328.945C319.285 328.945 308.95 336.249 308.95 347.273C308.95 357.195 313.222 362.155 325.072 366.978L330.584 369.183C335.821 371.25 337.337 372.628 337.337 375.935C337.337 381.034 332.238 381.861 327.966 381.861C320.938 381.861 315.564 380.483 308.674 378.002C307.572 382.136 307.572 387.511 308.674 391.783C314.462 394.952 322.454 395.917 330.722 395.917C344.227 395.917 354.975 388.889 354.975 376.073C354.975 365.6 350.566 360.64 340.506 356.506Z" fill="var(--fill-0, #CC092F)"/>
<path id="svg_7" d="M395.075 381.447C386.256 381.447 380.468 374.557 380.468 362.293C380.468 350.718 385.154 343.139 395.213 343.139C399.485 343.139 402.379 343.828 406.375 345.343C407.477 341.347 409.682 336.8 412.576 333.079C407.064 330.185 401.69 328.669 392.87 328.669C373.441 328.669 362.279 342.45 362.279 362.155C362.279 382.687 373.716 395.641 393.559 395.641C400.725 395.641 407.477 394.401 412.852 391.369C410.509 388.199 407.753 384.065 406.237 379.105C401.276 381.309 399.209 381.447 395.075 381.447Z" fill="var(--fill-0, #CC092F)"/>
<path id="svg_8" d="M444.133 328.807C424.427 328.807 413.403 342.312 413.403 362.431C413.403 382.963 424.978 395.779 444.133 395.779C463.976 395.779 475 382.688 475 362.431C475 342.174 463.976 328.807 444.133 328.807ZM444.133 381.723C434.349 381.723 431.455 373.731 431.455 362.431C431.455 351.407 434.487 342.863 444.133 342.863C454.192 342.863 456.948 351.131 456.948 362.431C456.948 374.42 453.779 381.723 444.133 381.723Z" fill="var(--fill-0, #CC092F)"/>
<path id="svg_9" d="M272.984 328.807C253.967 328.807 242.392 341.485 242.392 362.706C242.392 383.928 254.656 395.779 275.74 395.779C282.905 395.779 290.76 394.538 295.721 392.058C296.685 387.924 296.685 382.55 295.721 378.416C289.244 380.207 283.732 381.447 277.669 381.447C267.885 381.447 261.133 377.727 259.755 367.392H299.717C300.268 365.876 300.406 360.639 300.406 358.435C300.268 339.556 289.52 328.807 272.984 328.807ZM259.755 354.714C260.995 346.997 265.68 342.312 272.708 342.312C280.7 342.312 283.732 347.686 284.008 354.714H259.755Z" fill="var(--fill-0, #CC092F)"/>
<path id="svg_10" d="M230.128 55.8236C214.143 55.8236 196.78 57.3394 179.555 60.2332C196.918 37.9094 224.616 23.4403 255.483 23.4403C278.22 23.4403 300.957 31.984 316.253 44.7995C319.009 47.1421 321.214 47.2799 323.281 45.2129C325.348 43.1459 325.21 40.9411 322.868 38.3229C302.886 15.0345 273.535 -0.537028 238.947 0.0141757C193.61 0.840982 155.164 29.5036 140.419 69.1903C127.052 73.4621 114.65 78.4229 103.902 84.4862C100.87 86.1398 99.9056 88.2068 100.87 90.6872C101.973 93.0298 104.04 93.8566 107.071 93.0298C116.442 90.2738 125.95 87.9312 136.009 85.8642C134.907 91.1006 134.356 96.4749 134.356 102.125C133.529 138.642 153.097 173.506 183.275 192.522C186.307 194.451 188.787 194.451 190.441 192.109C192.094 189.766 191.957 187.699 189.338 185.494C170.184 168.407 159.573 142.776 159.573 117.558C159.573 104.743 162.192 92.4786 167.015 81.3168C177.074 80.4899 187.823 79.8009 199.811 79.8009C277.255 79.8009 342.435 105.294 342.435 138.78C342.435 155.729 320.938 172.679 295.445 183.978C289.244 186.734 288.693 188.664 289.52 191.282C290.347 193.762 293.103 194.589 296.272 193.625C340.92 179.018 374.681 154.902 374.681 125.826C374.681 86.4154 310.879 55.8236 230.128 55.8236Z" fill="var(--fill-0, #CC092F)"/>
<path id="svg_11" d="M267.058 257.013V172.265C267.058 168.958 263.889 167.856 261.409 169.371L239.912 181.774V261.147H263.062C265.129 261.009 267.058 259.218 267.058 257.013Z" fill="var(--fill-0, #CC092F)"/>
<path id="svg_12" d="M213.592 199.826V258.391C213.592 259.907 214.694 261.009 216.21 261.009H232.47V185.77L216.21 195.14C214.556 196.243 213.592 197.759 213.592 199.826Z" fill="var(--fill-0, #CC092F)"/>
</g>
</svg>
