<svg preserveAspectRatio="xMidYMid meet" overflow="visible" style="display: block;" viewBox="0 0 547 313" fill="none" xmlns="http://www.w3.org/2000/svg">
<g id="brq-logo 1">
<path id="Vector" d="M133.052 120.526C132.912 120.526 132.772 120.515 132.629 120.515H131.847L133.052 120.526Z" fill="var(--fill-0, white)"/>
<path id="Vector_2" d="M226.686 152.802H226.609V225.987C226.609 227.451 227.796 228.636 229.262 228.636H260.661C262.127 228.636 263.314 227.451 263.314 225.987V120.219H295.495C296.961 120.219 298.148 119.034 298.148 117.57V87.1137C298.148 85.594 296.902 84.402 295.38 84.4612C258.162 85.8763 228.24 115.678 226.679 152.805L226.686 152.802Z" fill="var(--fill-0, white)"/>
<path id="Vector_3" d="M130.423 84.4926H93.6032V37.0964C93.6032 35.6325 92.4163 34.4474 90.9502 34.4474H60.061C58.5949 34.4474 57.4081 35.6325 57.4081 37.0964V51.035C57.4081 90.3483 89.2119 120.303 128.531 120.519L142.473 120.526H146.096C157.092 120.526 166.004 129.428 166.004 140.404V172.45C166.004 183.429 157.089 192.328 146.096 192.328H114.027C103.032 192.328 94.1198 183.426 94.1198 172.45V132.202C94.1198 130.739 92.933 129.553 91.4669 129.553H60.068C58.6019 129.553 57.4151 130.739 57.4151 132.202V157.399C57.4151 198.511 93.4461 231.529 135.209 228.828C169.913 226.583 197.668 199.048 201.633 164.548C206.615 121.223 172.821 84.4891 130.434 84.4891L130.423 84.4926Z" fill="var(--fill-0, white)"/>
<path id="Vector_4" d="M382.724 228.657H419.544V276.053C419.544 277.517 420.731 278.702 422.197 278.702H453.086C454.552 278.702 455.739 277.517 455.739 276.053V262.115C455.739 199.341 423.935 192.847 384.616 192.631L370.674 192.624H367.051C356.055 192.624 347.143 183.722 347.143 172.746V140.7C347.143 129.721 356.059 120.822 367.051 120.822H399.12C410.116 120.822 419.027 129.724 419.027 140.7V181.153C419.027 182.617 420.214 183.802 421.68 183.802H453.079C454.545 183.802 455.732 182.617 455.732 181.153V155.751C455.732 114.639 419.701 81.6205 377.938 84.3218C343.234 86.5665 315.479 114.102 311.514 148.602C306.533 191.927 340.326 228.661 382.714 228.661L382.724 228.657Z" fill="var(--fill-0, white)"/>
<path id="Vector_5" d="M473.524 100.742C470.372 100.742 467.548 100.059 465.133 98.7065C462.693 97.3437 460.773 95.3953 459.429 92.9136C458.106 90.4668 457.432 87.5738 457.432 84.3113C457.432 81.0489 458.102 78.1524 459.425 75.6847C460.769 73.182 462.689 71.2232 465.133 69.8569C467.548 68.508 470.369 67.8213 473.524 67.8213C476.68 67.8213 479.437 68.5045 481.853 69.8569C484.3 71.2232 486.216 73.1855 487.56 75.6847C488.883 78.1524 489.554 81.0524 489.554 84.3113C489.554 87.5703 488.883 90.4633 487.557 92.9136C486.216 95.3918 484.297 97.3402 481.853 98.7065C479.437 100.055 476.634 100.742 473.524 100.742ZM473.524 70.8189C470.889 70.8189 468.56 71.3765 466.595 72.471C464.633 73.5689 463.153 75.0817 462.068 77.1033C460.982 79.1284 460.431 81.5578 460.431 84.3148C460.431 87.0719 460.982 89.4873 462.068 91.4915C463.15 93.4922 464.633 94.9979 466.595 96.0959C468.557 97.1938 470.889 97.748 473.524 97.748C476.16 97.748 478.425 97.1903 480.39 96.0959C482.356 94.9979 483.839 93.4922 484.918 91.4915C486.003 89.4838 486.555 87.0684 486.555 84.3148C486.555 81.5612 486.003 79.1284 484.914 77.1033C483.832 75.0851 482.352 73.5724 480.387 72.4745C478.422 71.3765 476.111 70.8223 473.521 70.8223L473.524 70.8189Z" fill="var(--fill-0, white)"/>
<path id="Vector_6" d="M467.108 79.0552V78.0269V78.0897V75.6707H470.376V92.6557H467.108V79.0552Z" fill="var(--fill-0, white)"/>
<path id="Vector_7" d="M469.409 83.7711L473.524 83.5306C474.655 83.4922 475.493 83.2587 476.038 82.8335C476.582 82.4117 476.854 81.7983 476.854 80.9896C476.854 80.181 476.582 79.5884 476.038 79.205C475.493 78.8216 474.655 78.6299 473.524 78.6299H469.468L470.135 75.6672H473.524C475.702 75.6672 477.378 76.1203 478.551 77.0266C479.72 77.9328 480.307 79.2329 480.307 80.9269C480.307 82.6208 479.72 83.8199 478.551 84.7644C477.381 85.7125 475.706 86.2458 473.524 86.3678L469.409 86.6083V83.7676V83.7711Z" fill="var(--fill-0, white)"/>
<path id="Vector_8" d="M472.798 85.7648L476.069 85.2803C477.601 87.4971 478.994 89.9544 480.247 92.6557H476.554C475.587 90.2367 474.334 87.9398 472.802 85.7648H472.798Z" fill="var(--fill-0, white)"/>
</g>
</svg>
