<svg preserveAspectRatio="xMidYMid meet" overflow="visible" style="display: block;" viewBox="0 0 545.529 230" fill="none" xmlns="http://www.w3.org/2000/svg">
<g id="Group">
<path id="Vector" d="M23.1267 185.328H17.7008C17.5229 185.328 17.345 185.416 17.1671 185.506C16.9892 185.594 16.9003 185.772 16.9003 186.04L14.1428 198.769C12.5418 200.193 10.9407 200.905 9.25069 200.905C8.36119 200.905 7.73853 200.638 7.4717 200.104C7.20486 199.57 7.11592 198.769 7.38275 197.611L9.78436 186.04C9.8733 185.862 9.78436 185.684 9.69541 185.506C9.60647 185.416 9.42858 185.328 9.25069 185.328H3.8248C3.6469 185.328 3.469 185.416 3.29111 185.506C3.11321 185.594 3.02426 185.772 3.02426 186.04L0.266846 198.947C-0.266846 201.528 0 203.486 1.06739 204.999C2.13477 206.424 3.91375 207.225 6.40431 207.225C8.98381 207.225 11.3855 206.157 13.4313 203.931L12.9865 206.068C12.9865 206.246 12.9865 206.424 13.0755 206.513C13.1644 206.602 13.3423 206.691 13.5202 206.691H18.5903C18.7682 206.691 18.9461 206.602 19.124 206.513C19.3019 206.424 19.3908 206.246 19.3908 206.068L23.6604 186.128C23.7493 185.95 23.6604 185.772 23.5714 185.594C23.4825 185.416 23.3046 185.328 23.1267 185.328Z" fill="var(--fill-0, white)"/>
<path id="Vector_2" d="M55.8602 184.793C54.4366 184.793 53.1027 185.06 51.7683 185.594C50.4343 186.128 49.0999 186.929 47.7655 188.086C47.321 187.018 46.6982 186.217 45.7198 185.683C44.7414 185.149 43.5851 184.882 42.1619 184.882C40.9166 184.882 39.7602 185.149 38.515 185.683C37.3586 186.217 36.1134 187.018 34.8681 188.175L35.3128 186.128C35.4017 185.95 35.3128 185.772 35.2239 185.594C35.1349 185.505 34.957 185.416 34.7791 185.416H29.6201C29.4422 185.416 29.2643 185.505 29.0864 185.594C28.9085 185.683 28.8195 185.861 28.8195 186.128L24.55 206.067C24.55 206.245 24.55 206.423 24.6389 206.512C24.7279 206.601 24.9058 206.69 25.0837 206.69H30.5095C30.6875 206.69 30.8654 206.601 31.0433 206.512C31.2212 206.423 31.3101 206.245 31.3101 206.067L33.9786 193.605C34.8681 192.804 35.6686 192.181 36.5581 191.736C37.4476 191.291 38.1592 191.113 38.8707 191.113C39.7602 191.113 40.3829 191.38 40.6497 192.003C41.0055 192.537 41.0055 193.338 40.8276 194.407L38.3371 206.067C38.3371 206.245 38.3371 206.423 38.426 206.512C38.515 206.601 38.6928 206.69 38.8707 206.69H44.4745C44.6524 206.69 44.8303 206.601 45.0082 206.512C45.1861 206.423 45.2751 206.245 45.2751 206.067L47.9434 193.605C48.8329 192.804 49.6336 192.181 50.523 191.825C51.4125 191.38 52.2132 191.202 52.8356 191.202C53.7251 191.202 54.3479 191.469 54.6145 192.003C54.9703 192.537 54.9703 193.338 54.7924 194.407L52.3019 206.067C52.3019 206.245 52.3019 206.423 52.3911 206.512C52.4798 206.601 52.6577 206.69 52.8356 206.69H58.2615C58.4394 206.69 58.6173 206.601 58.7951 206.512C58.973 206.423 59.0622 206.245 59.0622 206.067L61.7306 193.694C62.3534 190.935 62.0863 188.798 61.1082 187.285C60.1295 185.505 58.3507 184.793 55.8602 184.793Z" fill="var(--fill-0, white)"/>
<path id="Vector_3" d="M82.3667 185.861C81.121 185.149 79.52 184.793 77.5632 184.793C75.2506 184.793 73.116 185.327 71.3366 186.306C69.469 187.285 68.0459 188.709 66.8894 190.401C66.8006 190.579 66.7115 190.668 66.7115 190.757C66.6228 190.935 66.8006 191.113 67.0673 191.291L70.8921 192.893C71.2479 193.071 71.515 192.893 71.8707 192.537C72.9381 191.291 74.272 190.757 75.873 190.757C76.9408 190.757 77.7411 191.024 78.1861 191.558C78.6306 192.092 78.7197 192.893 78.5418 193.872L78.4527 194.139L73.0268 194.585C70.7142 194.763 68.7574 195.385 67.2451 196.543C65.7328 197.611 64.7547 199.124 64.3097 200.905C64.0431 202.151 64.1318 203.219 64.4876 204.198C64.8434 205.177 65.555 205.889 66.6228 206.512C67.6009 207.046 68.8462 207.313 70.1806 207.313C71.6929 207.313 73.116 206.957 74.3612 206.334C75.6064 205.711 76.6738 204.91 77.5632 203.931C77.6524 204.91 77.919 205.889 78.364 206.957C78.4527 207.135 78.6306 207.313 78.8084 207.313L79.1642 207.225L84.2343 205.088C84.5014 204.91 84.6793 204.821 84.6793 204.554C84.6793 204.465 84.6793 204.287 84.6793 204.109C84.2343 202.952 84.0564 201.795 83.9677 200.727C83.8785 199.658 84.0564 198.412 84.3235 196.988L85.035 193.516C85.3908 191.825 85.3017 190.312 84.8572 188.977C84.4122 187.641 83.6119 186.573 82.3667 185.861ZM77.1187 199.925C75.873 201.261 74.4499 201.883 72.7602 201.883C72.0486 201.883 71.515 201.705 71.1587 201.439C70.8029 201.171 70.6251 200.727 70.8029 200.192C70.9808 199.213 71.6929 198.679 72.8489 198.501L77.4745 197.967L77.1187 199.925Z" fill="var(--fill-0, white)"/>
<path id="Vector_4" d="M117.59 186.128C116.256 185.238 114.655 184.793 112.609 184.793C110.474 184.793 108.517 185.238 106.739 186.217C104.96 187.196 103.447 188.531 102.202 190.223C100.957 191.914 100.156 193.872 99.7117 195.92C99.2667 198.145 99.2667 200.192 99.8004 201.883C100.334 203.575 101.402 204.91 102.825 205.889C104.337 206.779 106.116 207.313 108.251 207.313C110.563 207.313 112.609 206.868 114.299 205.978C115.989 205.088 117.412 203.842 118.569 202.239C118.747 201.973 118.747 201.795 118.391 201.527L114.655 199.569L114.299 199.48C114.121 199.48 113.855 199.569 113.677 199.836C112.609 201.083 111.275 201.617 109.763 201.617C108.517 201.617 107.628 201.261 107.006 200.549C106.383 199.836 106.027 198.857 106.116 197.522H119.013C119.458 197.522 119.725 197.344 119.814 196.899C119.992 196.187 120.17 195.653 120.259 195.297C120.704 193.338 120.704 191.469 120.17 189.956C119.725 188.175 118.836 187.018 117.59 186.128ZM114.121 193.427H107.006C107.45 192.359 108.073 191.469 108.873 190.846C109.674 190.223 110.563 189.956 111.453 189.956C112.431 189.956 113.143 190.223 113.588 190.846C114.121 191.38 114.299 192.27 114.121 193.427Z" fill="var(--fill-0, white)"/>
<path id="Vector_5" d="M153.348 184.793C151.924 184.793 150.59 185.06 149.256 185.594C147.922 186.128 146.588 186.929 145.253 188.086C144.809 187.018 144.186 186.217 143.208 185.683C142.229 185.149 141.073 184.882 139.65 184.882C138.404 184.882 137.248 185.149 136.003 185.683C134.847 186.217 133.601 187.018 132.356 188.175L132.801 186.128C132.89 185.95 132.801 185.772 132.712 185.594C132.623 185.505 132.445 185.416 132.267 185.416H127.197C127.019 185.416 126.841 185.505 126.663 185.594C126.485 185.683 126.397 185.861 126.397 186.128L122.127 206.067C122.127 206.245 122.127 206.423 122.216 206.512C122.305 206.601 122.482 206.69 122.66 206.69H128.086C128.264 206.69 128.442 206.601 128.62 206.512C128.798 206.423 128.887 206.245 128.887 206.067L131.555 193.605C132.445 192.804 133.246 192.181 134.135 191.736C135.024 191.291 135.736 191.113 136.448 191.113C137.337 191.113 137.96 191.38 138.226 192.003C138.582 192.537 138.582 193.338 138.404 194.407L135.914 206.067C135.914 206.245 135.914 206.423 136.003 206.512C136.092 206.601 136.27 206.69 136.448 206.69H141.873C142.051 206.69 142.229 206.601 142.407 206.512C142.585 206.423 142.674 206.245 142.674 206.067L145.342 193.605C146.232 192.804 147.032 192.181 147.922 191.825C148.812 191.38 149.612 191.202 150.235 191.202C151.124 191.202 151.747 191.469 152.014 192.003C152.369 192.537 152.369 193.338 152.191 194.407L149.701 206.067C149.701 206.245 149.701 206.423 149.79 206.512C149.879 206.601 150.057 206.69 150.235 206.69H155.661C155.838 206.69 156.016 206.601 156.194 206.512C156.372 206.423 156.461 206.245 156.461 206.067L159.13 193.694C159.752 190.935 159.485 188.798 158.507 187.285C157.617 185.505 155.838 184.793 153.348 184.793Z" fill="var(--fill-0, white)"/>
<path id="Vector_6" d="M182.879 186.128C181.633 185.238 180.21 184.793 178.521 184.793C177.364 184.793 176.208 185.06 175.052 185.594C173.984 186.128 172.917 186.84 172.116 187.73L172.472 186.128C172.561 185.95 172.472 185.772 172.383 185.594C172.294 185.505 172.116 185.416 171.938 185.416H166.868C166.69 185.416 166.512 185.505 166.334 185.594C166.157 185.683 166.067 185.861 166.067 186.128L159.93 214.879C159.841 215.057 159.93 215.235 160.019 215.414C160.108 215.503 160.286 215.592 160.464 215.592H165.889C166.067 215.592 166.245 215.503 166.423 215.414C166.512 215.325 166.69 215.147 166.69 214.879L168.825 204.999C169.626 206.601 171.137 207.313 173.45 207.313C175.318 207.313 177.008 206.868 178.698 205.889C180.388 204.91 181.811 203.575 182.968 201.883C184.124 200.192 184.925 198.234 185.37 196.187C185.903 193.872 185.903 191.914 185.458 190.223C184.925 188.264 184.124 187.018 182.879 186.128ZM178.431 196.009C178.076 197.611 177.453 198.857 176.563 199.658C175.674 200.549 174.607 200.905 173.361 200.905C172.205 200.905 171.405 200.549 170.871 199.836C170.337 199.124 170.248 198.145 170.515 196.899L171.315 193.249C171.849 192.537 172.472 192.003 173.273 191.558C174.073 191.113 174.784 190.935 175.674 190.935C176.83 190.935 177.72 191.38 178.254 192.27C178.698 193.16 178.787 194.407 178.431 196.009Z" fill="var(--fill-0, white)"/>
<path id="Vector_7" d="M204.582 184.793C204.493 184.793 204.404 184.793 204.316 184.793C202.003 185.327 199.779 186.573 197.644 188.531L198.178 186.039C198.267 185.861 198.178 185.683 198.089 185.505C198 185.416 197.822 185.327 197.644 185.327H192.485C192.307 185.327 192.129 185.416 191.951 185.505C191.774 185.594 191.685 185.772 191.685 186.039L187.415 205.978C187.415 206.156 187.415 206.334 187.504 206.423C187.593 206.512 187.771 206.601 187.949 206.601H193.375C193.552 206.601 193.73 206.512 193.908 206.423C194.086 206.334 194.175 206.156 194.175 205.978L196.755 194.05C197.822 193.427 198.89 192.893 200.046 192.537C201.202 192.181 202.537 191.914 204.048 191.736C204.404 191.647 204.671 191.469 204.76 191.202V191.024L204.938 185.327C205.027 184.971 204.849 184.793 204.582 184.793Z" fill="var(--fill-0, white)"/>
<path id="Vector_8" d="M223.706 186.128C222.372 185.238 220.771 184.793 218.725 184.793C216.59 184.793 214.634 185.238 212.855 186.217C211.075 187.196 209.564 188.531 208.318 190.223C207.073 191.914 206.272 193.872 205.827 195.92C205.383 198.145 205.383 200.192 205.917 201.883C206.45 203.575 207.518 204.91 208.941 205.889C210.453 206.779 212.232 207.313 214.367 207.313C216.679 207.313 218.725 206.868 220.415 205.978C222.105 205.088 223.529 203.842 224.685 202.239C224.863 201.973 224.863 201.795 224.507 201.527L220.771 199.569L220.415 199.48C220.237 199.48 219.97 199.569 219.792 199.836C218.725 201.083 217.391 201.617 215.879 201.617C214.634 201.617 213.744 201.261 213.121 200.549C212.499 199.836 212.143 198.857 212.232 197.522H225.13C225.574 197.522 225.841 197.344 225.93 196.899C226.108 196.187 226.286 195.653 226.375 195.297C226.819 193.338 226.819 191.469 226.286 189.956C225.93 188.175 225.04 187.018 223.706 186.128ZM220.326 193.427H213.21C213.655 192.359 214.278 191.469 215.078 190.846C215.879 190.223 216.768 189.956 217.658 189.956C218.636 189.956 219.348 190.223 219.792 190.846C220.326 191.38 220.504 192.27 220.326 193.427Z" fill="var(--fill-0, white)"/>
<path id="Vector_9" d="M240.874 184.793C239.095 184.793 237.404 185.06 235.893 185.683C234.38 186.306 233.224 187.107 232.246 188.175C231.267 189.244 230.645 190.401 230.378 191.647C229.933 193.694 230.378 195.297 231.712 196.365C233.046 197.433 234.736 198.234 236.96 198.768C238.205 199.035 238.917 199.302 239.362 199.48C239.717 199.658 239.895 200.014 239.806 200.549C239.717 200.993 239.45 201.349 238.917 201.617C238.472 201.883 237.76 201.973 236.871 201.973C235.981 201.973 235.181 201.795 234.558 201.439C233.847 201.083 233.313 200.637 232.957 199.925C232.868 199.747 232.69 199.569 232.512 199.569C232.424 199.569 232.246 199.569 232.156 199.658L228.243 201.705C227.976 201.883 227.887 202.061 227.798 202.239C227.798 202.417 227.798 202.507 227.798 202.596C228.866 205.622 231.534 207.046 235.715 207.046C237.671 207.046 239.361 206.779 240.963 206.156C242.475 205.533 243.72 204.643 244.698 203.575C245.677 202.507 246.299 201.261 246.566 199.925C246.922 198.412 246.744 197.166 246.211 196.187C245.588 195.207 244.788 194.495 243.809 194.05C242.83 193.605 241.496 193.16 240.073 192.715C238.917 192.448 238.205 192.181 237.849 192.003C237.494 191.825 237.316 191.469 237.404 191.024C237.494 190.668 237.76 190.312 238.205 190.045C238.65 189.778 239.273 189.689 240.073 189.689C240.874 189.689 241.496 189.867 242.119 190.134C242.742 190.401 243.186 190.846 243.542 191.469C243.631 191.647 243.809 191.825 243.987 191.825L244.343 191.736L248.078 189.956C248.345 189.778 248.523 189.6 248.523 189.422C248.523 189.244 248.523 189.155 248.523 189.066C247.367 186.217 244.876 184.793 240.874 184.793Z" fill="var(--fill-0, white)"/>
<path id="Vector_10" d="M267.38 185.861C266.135 185.149 264.534 184.793 262.577 184.793C260.264 184.793 258.13 185.327 256.35 186.306C254.483 187.285 253.06 188.709 251.903 190.401C251.814 190.579 251.725 190.668 251.725 190.757C251.636 190.935 251.814 191.113 252.081 191.291L255.906 192.893C256.262 193.071 256.528 192.893 256.884 192.537C257.952 191.291 259.286 190.757 260.887 190.757C261.954 190.757 262.755 191.024 263.2 191.558C263.644 192.092 263.734 192.893 263.556 193.872L263.466 194.139L258.041 194.585C255.728 194.763 253.771 195.385 252.259 196.543C250.747 197.611 249.768 199.124 249.324 200.905C249.057 202.151 249.146 203.219 249.501 204.198C249.857 205.177 250.569 205.889 251.636 206.512C252.615 207.046 253.86 207.313 255.194 207.313C256.706 207.313 258.13 206.957 259.375 206.334C260.62 205.711 261.688 204.91 262.577 203.931C262.666 204.91 262.933 205.889 263.378 206.957C263.466 207.135 263.644 207.313 263.822 207.313L264.178 207.225L269.248 205.088C269.515 204.91 269.693 204.821 269.693 204.554C269.693 204.465 269.693 204.287 269.693 204.109C269.248 202.952 269.07 201.795 268.982 200.727C268.892 199.658 269.07 198.412 269.337 196.988L270.049 193.516C270.405 191.825 270.315 190.312 269.871 188.977C269.515 187.641 268.626 186.573 267.38 185.861ZM262.221 199.925C260.976 201.261 259.553 201.883 257.863 201.883C257.151 201.883 256.617 201.705 256.262 201.439C255.906 201.171 255.728 200.727 255.906 200.192C256.084 199.213 256.795 198.679 257.952 198.501L262.577 197.967L262.221 199.925Z" fill="var(--fill-0, white)"/>
<path id="Vector_11" d="M374.83 184.97C374.741 184.97 374.652 184.97 374.563 184.97C372.962 184.881 371.717 184.525 370.027 184.792C366.202 185.415 362.822 188.442 360.598 191.379C358.108 194.762 355.261 201.26 358.019 205.177C359.442 207.224 361.577 207.402 363.889 207.046C366.647 206.601 369.404 205.265 370.917 202.773H371.361L370.472 206.689H378.21L384.525 175.802H376.609L374.83 184.97Z" fill="var(--fill-0, white)"/>
<path id="Vector_12" d="M311.499 184.971H305.717C305.895 184.347 305.984 183.635 306.162 183.012C306.963 180.164 308.742 179.897 311.499 180.075C312.655 180.164 313.9 180.431 314.968 180.965L315.768 176.336C314.434 175.891 313.1 175.535 311.766 175.446C311.41 175.446 311.054 175.357 310.698 175.357C310.343 175.357 309.898 175.357 309.542 175.357C307.318 175.446 305.005 176.069 303.138 177.315C300.38 179.095 298.601 181.944 297.801 184.971H295.043L294.154 189.332H296.911L292.108 212.832H299.935L304.739 189.332H310.698L311.499 184.971Z" fill="var(--fill-0, white)"/>
<path id="Vector_13" d="M347.078 184.614C340.585 184.97 335.159 189.687 333.202 195.741C331.69 200.458 332.402 204.553 337.383 206.422C346.188 209.716 356.151 202.595 357.485 193.693C358.464 186.839 353.038 184.258 347.078 184.614Z" fill="var(--fill-0, white)"/>
<path id="Vector_14" d="M308.652 194.852C306.606 199.926 307.318 204.821 313.1 206.602C321.817 209.361 331.245 202.329 332.58 193.606C333.558 186.841 328.221 184.259 322.35 184.526C316.124 184.882 310.876 189.155 308.652 194.852Z" fill="var(--fill-0, white)"/>
<path id="Vector_15" d="M341.475 216.927C339.251 218.974 336.582 220.576 333.825 221.734C329.466 223.514 324.396 224.493 319.682 223.603C313.633 222.535 308.207 218.351 305.628 212.832H305.183C306.518 221.645 314.078 228.677 322.884 229.745C330.267 230.724 337.828 228.855 343.965 224.671C344.765 224.137 345.477 223.514 346.189 222.98L348.59 229.567L352.059 212.743H336.227L341.475 216.927Z" fill="var(--fill-0, white)"/>
<path id="Vector_16" d="M285.437 184.97L281.078 206.689H288.906L293.353 184.97H285.437Z" fill="var(--fill-0, white)"/>
<path id="Vector_17" d="M295.043 175.892H287.127L285.882 182.39H293.709L295.043 175.892Z" fill="var(--fill-0, white)"/>
<path id="Vector_18" d="M228.954 49.2255C212.143 49.2255 199.779 52.0738 187.593 58.661C173.272 66.4051 163.933 78.9562 159.93 95.8686L158.418 102.545C154.949 116.787 156.461 128.181 162.776 136.459C171.226 147.407 184.48 152.125 207.162 152.125C247.278 152.125 269.426 137.26 276.897 105.482L278.41 98.8062C281.79 84.9201 280.189 73.6152 273.873 65.337C265.334 54.2101 251.458 49.2255 228.954 49.2255ZM247.545 97.382L246.388 102.011C242.475 117.232 230.822 124.709 210.809 124.709C198.8 124.709 194.353 122.128 191.151 117.944C188.571 114.65 188.037 110.111 189.461 104.058L190.617 99.3402C194.709 83.5848 205.294 76.8195 226.019 76.8195C238.383 76.8195 242.741 79.3123 246.032 83.5848C248.523 86.7003 249.056 91.2401 247.545 97.382Z" fill="var(--fill-0, white)"/>
<path id="Vector_19" d="M407.207 98.8062C410.588 84.9201 408.987 73.6152 402.671 65.337C394.043 54.2101 380.167 49.2255 357.663 49.2255C340.852 49.2255 328.488 52.0738 316.302 58.661C301.981 66.4051 292.642 78.9562 288.639 95.8686L287.127 102.545C283.658 116.787 285.17 128.181 291.485 136.459C299.935 147.407 313.189 152.125 335.871 152.125C375.987 152.125 398.135 137.26 405.606 105.482L407.207 98.8062ZM376.253 97.382L375.097 102.011C371.183 117.232 359.531 124.709 339.517 124.709C327.51 124.709 323.062 122.128 319.86 117.944C317.28 114.65 316.747 110.111 318.17 104.058L319.326 99.3402C323.418 83.5848 333.914 76.8195 354.728 76.8195C367.092 76.8195 371.45 79.3123 374.741 83.5848C377.232 86.7003 377.766 91.2401 376.253 97.382Z" fill="var(--fill-0, white)"/>
<path id="Vector_20" d="M12.3639 149.276H137.871C140.183 149.276 142.14 147.763 142.674 145.538L147.655 124.798C148.011 123.284 147.655 121.771 146.766 120.614C145.787 119.456 144.453 118.744 142.852 118.744H63.3316L168.647 29.4636L168.558 29.3746C169.269 28.7515 169.892 27.8613 170.159 26.7932L175.14 6.05296C175.496 4.53971 175.14 3.02647 174.251 1.86929C173.272 0.712112 171.938 0 170.337 0H42.6954C40.3828 0 38.4259 1.60225 37.8922 3.8276L34.9569 16.0225L32.9111 24.4788C32.5553 25.9921 32.9111 27.5053 33.8006 28.6625C34.0674 29.0185 34.5122 29.2856 35.0458 29.5526C35.8464 30.0867 36.7359 30.3537 37.7143 30.3537C38.4259 30.5318 39.1375 30.5318 39.6712 30.5318H37.6254H120.792L14.3208 119.724C13.4313 120.436 12.7197 121.326 12.4528 122.483L7.4717 143.223C7.11592 144.737 7.4717 146.25 8.36119 147.407C9.42858 148.564 10.8517 149.276 12.3639 149.276Z" fill="var(--fill-0, white)"/>
<path id="Vector_21" d="M538.942 64.0909C531.381 54.3881 519.641 49.2255 500.335 49.2255C481.034 49.2255 469.648 52.7859 457.731 61.4201L457.641 56.3463C457.73 54.1213 455.952 52.2519 453.728 52.2519H453.283H435.048C432.825 52.2519 430.957 53.7653 430.423 55.9015L401.07 179.809C400.803 181.055 400.892 182.39 401.604 183.458C402.493 184.883 404.005 185.773 405.695 185.773H427.399C429.623 185.773 431.491 184.259 432.024 182.123L441.719 140.821C450.614 148.476 460.22 152.036 477.301 152.036C515.104 152.036 535.384 136.014 542.587 104.325L543.833 98.6281C547.211 84.1188 545.524 72.4578 538.942 64.0909ZM512.966 96.7587L511.813 101.566C506.917 121.594 486.729 124.62 473.651 124.62C451.415 124.62 450.081 116.609 449.102 110.2L452.393 95.3345C458.709 82.7834 471.252 76.7308 490.641 76.7308C502.652 76.7308 508.076 79.045 511.546 83.5848C513.946 86.7003 514.391 91.0621 512.966 96.7587Z" fill="var(--fill-0, white)"/>
</g>
</svg>
